HIERARCHY
ROOT Hips
{
	OFFSET -0.179506 -22.333345 2.821913
	CHANNELS 6 Xposition Yposition Zposition Zrotation Yrotation Xrotation 
	JOINT LeftUpLeg
	{
		OFFSET 6.951974 -9.140623 -0.681533
		CHANNELS 3 Zrotation Yrotation Xrotation
		JOINT LeftLeg
		{
			OFFSET 3.427654 -37.519855 -0.449580
			CHANNELS 3 Zrotation Yrotation Xrotation
			JOINT LeftFoot
			{
				OFFSET -1.359570 -39.796059 -4.369333
				CHANNELS 3 Zrotation Yrotation Xrotation
				JOINT LeftToe
				{
					OFFSET 2.635814 -5.579078 11.928840
					CHANNELS 3 Zrotation Yrotation Xrotation
					End Site
					{
						OFFSET 0.000000 0.000000 0.000000
					}
				}
			}
		}
	}
	JOINT RightUpLeg
	{
		OFFSET -6.767048 -9.052170 -0.431982
		CHANNELS 3 Zrotation Yrotation Xrotation
		JOINT RightLeg
		{
			OFFSET -3.829005 -38.256897 -0.885003
			CHANNELS 3 Zrotation Yrotation Xrotation
			JOINT RightFoot
			{
				OFFSET 1.577377 -39.841461 -4.231180
				CHANNELS 3 Zrotation Yrotation Xrotation
				JOINT RightToe
				{
					OFFSET -2.537174 -4.814398 12.334795
					CHANNELS 3 Zrotation Yrotation Xrotation
					End Site
					{
						OFFSET 0.000000 0.000000 0.000000
					}
				}
			}
		}
	}
	JOINT Spine
	{
		OFFSET -0.253288 10.896323 -2.669631
		CHANNELS 3 Zrotation Yrotation Xrotation
		JOINT Spine1
		{
			OFFSET 0.548704 13.518043 0.109247
			CHANNELS 3 Zrotation Yrotation Xrotation
			JOINT Spine2
			{
				OFFSET 0.145701 5.292222 2.542457
				CHANNELS 3 Zrotation Yrotation Xrotation
				JOINT Neck
				{
					OFFSET -0.277840 21.387037 -4.285703
					CHANNELS 3 Zrotation Yrotation Xrotation
					JOINT Head
					{
						OFFSET 0.515184 6.496960 5.134897
						CHANNELS 3 Zrotation Yrotation Xrotation
						End Site
						{
							OFFSET 0.000000 0.000000 0.000000
						}
					}
				}
				JOINT LeftShoulder
				{
					OFFSET 7.884473 12.174932 -3.408961
					CHANNELS 3 Zrotation Yrotation Xrotation
					JOINT LeftArm
					{
						OFFSET 9.097692 3.046888 -0.886815
						CHANNELS 3 Zrotation Yrotation Xrotation
						JOINT LeftForeArm
						{
							OFFSET 25.961220 -1.277207 -2.745643
							CHANNELS 3 Zrotation Yrotation Xrotation
							JOINT LeftHand
							{
								OFFSET 24.923361 0.898606 -0.117091
								CHANNELS 3 Zrotation Yrotation Xrotation
								End Site
								{
									OFFSET 0.000000 0.000000 0.000000
								}
							}
						}
					}
				}
				JOINT RightShoulder
				{
					OFFSET -8.175920 11.883285 -3.861528
					CHANNELS 3 Zrotation Yrotation Xrotation
					JOINT RightArm
					{
						OFFSET -9.601238 3.255117 -0.914307
						CHANNELS 3 Zrotation Yrotation Xrotation
						JOINT RightForeArm
						{
							OFFSET -25.374195 -1.332924 -2.140099
							CHANNELS 3 Zrotation Yrotation Xrotation
							JOINT RightHand
							{
								OFFSET -25.529810 0.777228 -0.555919
								CHANNELS 3 Zrotation Yrotation Xrotation
								End Site
								{
									OFFSET 0.000000 0.000000 0.000000
								}
							}
						}
					}
				}
			}
		}
	}
}
MOTION
Frames: 9
Frame Time: 0.033333
36.660145 -45.136757 86.464439 -156.604388 -19.471379 97.434356 -1.046370 -5.944195 5.767874 -10.565777 -4.625900 57.330240 -4.238704 12.610934 -8.372631 nan nan nan -7.017532 -4.113279 -38.208336 -0.032926 -21.835973 44.551689 -9.544572 -15.603938 -24.718438 nan nan nan -3.657562 -0.061067 14.526804 4.579849 1.927661 13.518357 1.984145 -2.990620 -6.252380 -3.926529 -15.690623 -8.138423 1.555185 -16.461049 -15.484553 -20.313984 7.866958 3.042214 -62.119014 6.004440 19.533235 9.763809 -55.814340 5.486806 1.186731 -29.207712 -8.219656 29.416219 1.652401 -1.368268 40.265403 -11.396261 13.209461 -7.668827 52.469346 -1.643661 -2.032145 29.268321 -7.079599 
36.299297 -42.927414 86.118332 -157.653616 -19.176592 97.542629 -0.954632 -6.282027 3.367699 -11.060203 -3.110108 62.031262 -3.965188 12.934385 -9.171660 nan nan nan -5.890965 -3.382506 -36.570466 -0.140466 -20.794604 44.435822 -9.951189 -16.251021 -26.386624 nan nan nan -3.116962 0.408190 15.311295 4.530407 1.879579 12.894562 2.054140 -2.737432 -5.750671 -4.025427 -15.880124 -8.686419 1.504988 -16.234330 -15.627503 -20.623520 7.809816 2.889750 -61.996649 6.645495 19.214716 8.470395 -53.583404 6.797064 2.238796 -28.610630 -8.408690 29.705907 2.473476 -1.684976 39.547954 -9.937598 12.838388 -8.167330 53.083149 -2.455271 -3.451431 29.080854 -7.440314 
35.943027 -40.774303 85.755936 -158.521911 -18.881072 97.873673 -0.734494 -6.742637 0.322768 -11.285145 -1.480180 66.786329 -3.499484 13.199558 -9.850277 nan nan nan -4.878611 -2.813287 -35.272962 0.045274 -19.568421 44.304942 -10.275695 -16.931136 -27.869068 nan nan nan -2.535796 0.843298 15.688656 4.486280 1.664321 12.568937 2.127533 -2.508332 -5.312883 -4.141614 -16.167879 -9.258549 1.504903 -15.836504 -15.722373 -21.115858 7.532256 2.907204 -61.710375 7.372028 18.648242 7.208501 -51.462512 8.309378 3.525297 -27.906345 -7.642718 29.980417 3.415081 -1.802848 38.920809 -8.366173 12.487903 -9.203625 53.692511 -3.311657 -5.907849 29.600337 -8.084581 
35.634666 -38.661301 85.397736 -159.095952 -18.618269 98.092156 -0.406752 -7.382413 -3.055267 -11.264959 0.091974 71.535794 -2.992644 13.439812 -10.331004 nan nan nan -3.997839 -2.452527 -33.895870 0.328669 -18.546752 44.032892 -10.537233 -17.693589 -29.220474 nan nan nan -1.950042 1.212927 16.252604 4.400641 1.299690 12.135137 2.251640 -2.274711 -4.869331 -4.245286 -16.497004 -9.924505 1.449288 -15.329217 -15.662428 -21.650106 7.004230 3.220773 -61.357454 7.982688 17.722508 6.263633 -49.395187 9.131600 3.864919 -27.743250 -7.179370 30.123281 4.409642 -1.735131 38.490067 -6.791178 11.770247 -10.607054 54.707524 -4.480103 -7.732949 30.478154 -8.276694 
35.334969 -36.564533 85.039307 -159.900178 -18.545648 98.501112 -0.291619 -8.117739 -6.688175 -11.032926 1.772463 76.005409 -2.421393 13.904206 -10.767610 nan nan nan -3.447006 -2.090929 -32.688578 0.665593 -17.748993 43.722903 -10.550435 -18.471803 -30.507269 nan nan nan -1.629568 1.726141 16.712334 4.254962 0.990152 11.819287 2.351047 -2.037511 -4.587409 -4.226915 -16.853083 -10.637987 1.486049 -14.791680 -15.611237 -21.985229 6.653139 3.424540 -60.984122 8.637623 17.008541 5.404515 -47.353176 9.709989 4.112246 -27.837635 -7.579632 30.231178 5.339633 -1.591197 38.138779 -5.133770 10.941445 -11.894099 55.957259 -6.126451 -8.414410 31.235542 -7.842738 
35.000107 -34.390331 84.686783 -161.349119 -18.389364 99.220440 -0.158884 -8.471143 -10.289530 -10.619670 3.531091 79.836170 -1.816237 14.456826 -11.290165 nan nan nan -2.837834 -1.584159 -31.573946 0.960947 -16.921796 43.387145 -10.476012 -19.033737 -31.877816 nan nan nan -1.339698 2.504715 16.757962 4.053023 0.986508 12.003236 2.359349 -1.804085 -4.666510 -3.989406 -17.002811 -11.258057 1.356083 -14.498478 -15.570585 -22.262906 6.498380 3.418544 -60.506232 9.546306 16.628505 4.772987 -45.371100 10.273527 4.189865 -27.784717 -7.224992 30.168580 6.269081 -1.363495 37.924570 -3.573634 10.353288 -13.114923 57.203777 -7.417466 -9.451356 31.754873 -7.286792 
34.707035 -32.171635 84.389420 -162.908542 -17.999355 99.739795 0.382783 -8.549048 -13.728037 -10.091558 5.196540 83.139388 -1.279525 14.788030 -11.661411 nan nan nan -1.939630 -1.165740 -29.930393 1.293023 -16.086386 42.655810 -10.461644 -19.427165 -33.109592 nan nan nan -0.908843 3.334118 17.178994 3.851541 1.163174 11.910552 2.347470 -1.550286 -4.676538 -3.638146 -17.013957 -11.925014 0.990979 -14.376448 -15.256670 -22.229654 6.375917 3.583776 -60.155239 10.505082 16.393268 3.831073 -44.172668 11.280387 4.386571 -27.363622 -7.041181 29.729989 7.026471 -1.275428 37.922821 -1.974521 9.882286 -13.926389 58.652018 -7.825622 -11.265459 31.907101 -7.402657 
34.487640 -30.009771 84.154724 -164.456405 -17.655578 100.322108 1.087700 -8.593457 -17.554972 -9.386253 6.756845 86.203495 -0.809900 14.823775 -11.844454 nan nan nan -1.168197 -0.856507 -28.225777 1.684894 -15.289366 41.694232 -10.422124 -19.527197 -34.149473 nan nan nan -0.627648 4.227711 17.791982 3.588783 1.419997 11.296144 2.347852 -1.303662 -4.499270 -3.167865 -16.699379 -12.491826 0.501520 -14.476358 -14.804850 -21.843804 6.463568 3.726936 -59.924026 11.360248 16.184315 2.902783 -42.894898 13.157674 4.500713 -27.603121 -6.851375 29.104376 7.602198 -1.382006 38.285385 -0.454667 9.543594 -15.183434 60.115273 -8.420353 -12.666123 32.210194 -8.379887 
34.347244 -27.848280 83.997604 -166.217301 -17.412132 101.119753 1.832942 -8.620914 -21.622292 -8.751429 8.378246 88.787604 -0.285695 14.929982 -12.000598 nan nan nan -0.603023 -0.532996 -26.583487 2.087234 -14.370359 40.595723 -10.323821 -19.231664 -34.979526 nan nan nan -0.653472 5.368007 18.195239 3.331969 1.723330 10.769558 2.361192 -1.024502 -4.482107 -2.724482 -16.200498 -12.802103 -0.028917 -14.646598 -14.484661 -21.273113 6.776930 3.891869 -59.510031 12.126159 16.021749 1.996333 -41.911112 15.473322 3.917352 -28.162373 -6.752422 28.446556 7.984264 -1.523036 38.935134 0.883679 9.294502 -17.059327 61.684055 -9.568574 -13.504008 32.544394 -9.820780 
